<svg width="24" height="24" viewBox="0 0 24 24" fill="none" xmlns="http://www.w3.org/2000/svg">
<path d="M11.2521 3.00984C11.3459 2.90475 11.4609 2.82068 11.5894 2.76311C11.718 2.70554 11.8572 2.67578 11.9981 2.67578C12.139 2.67578 12.2782 2.70554 12.4068 2.76311C12.5354 2.82068 12.6503 2.90475 12.7441 3.00984L20.1841 11.3338C20.3477 11.5171 20.4382 11.7542 20.4382 11.9998C20.4382 12.2455 20.3477 12.4826 20.1841 12.6658L12.7441 20.9898C12.6503 21.0949 12.5354 21.179 12.4068 21.2366C12.2782 21.2941 12.139 21.3239 11.9981 21.3239C11.8572 21.3239 11.718 21.2941 11.5894 21.2366C11.4609 21.179 11.3459 21.0949 11.2521 20.9898L3.81411 12.6658C3.65049 12.4826 3.56006 12.2455 3.56006 11.9998C3.56006 11.7542 3.65049 11.5171 3.81411 11.3338L11.2521 3.00984Z" fill="#B7C9E2"/>
</svg>
