<svg class="svg-icon" viewBox="0 0 25 25" fill="none" xmlns="http://www.w3.org/2000/svg"><path d="M12.132 6.06h10" stroke="currentColor" stroke-width="1.2" stroke-miterlimit="10" stroke-linecap="round" stroke-linejoin="round"/><path d="M14.352 2.5h5.56c1.78 0 2.22.44 2.22 2.2v4.11c0 1.76-.44 2.2-2.22 2.2h-5.56c-1.78 0-2.22-.44-2.22-2.2V4.7c0-1.76.44-2.2 2.22-2.2Z" stroke="currentColor" stroke-width="1.2" stroke-linecap="round" stroke-linejoin="round"/><path d="M2.132 17.56h10" stroke="currentColor" stroke-width="1.2" stroke-miterlimit="10" stroke-linecap="round" stroke-linejoin="round"/><path d="M4.352 14h5.56c1.78 0 2.22.44 2.22 2.2v4.11c0 1.76-.44 2.2-2.22 2.2h-5.56c-1.78 0-2.22-.44-2.22-2.2V16.2c0-1.76.44-2.2 2.22-2.2ZM22.132 15.5c0 3.87-3.13 7-7 7l1.05-1.75" stroke="currentColor" stroke-width="1.2" stroke-linecap="round" stroke-linejoin="round"/><path d="M7.05 4.1 3.738 7.414M3.732 4.1l3.314 3.314" stroke="currentColor" stroke-width="1.2" stroke-linecap="round"/></svg>